# xmcd
#
# Track frame offsets:
#	150
#	29103
#	61298
#	78407
#	98001
#	115413
#	132207
#	150445
#	168469
#	182776
#	206576
#	223808
#	242589
#	260059
#	275732
#	294184
#	312307
#	332102
#
# Disc length: 4677 seconds
#
# Revision: 3
# Processed by: cddbd v1.5.2PL0 Copyright (c) Steve Scherf et al.
# Submitted via: audiograbber 1.83.01
#
DISCID=10124312
DTITLE=Various Artist - SFG329
DYEAR=2013
DGENRE=Karaoke
TTITLE0=Daft Punk f. Pharrel Williams - Lose yourself to dance
TTITLE1=Justin Timberlake - Tunnel Vision
TTITLE2=Stooshe - My man music
TTITLE3=Coves - Wicked game
TTITLE4=Kodaline - Love like this
TTITLE5=David Guetta f. Ne Yo and Akon - Play hard
TTITLE6=John Newman - Love me again
TTITLE7=Saturdays - Gentleman
TTITLE8=Icona Pop - Girlfriend
TTITLE9=Disclosure f. Elliza Doolittle - You and me
TTITLE10=Lawson f. B.O.B - Brokenhearted
TTITLE11=Selena Gomez - Come and get it
TTITLE12=Paramore - Still into you
TTITLE13=Dizzee Rascal f. Robbie Williams - Goin' crazy
TTITLE14=Maroon 5 - Love somebody
TTITLE15=1975 - The city
TTITLE16=Tom Odell - Another love
TTITLE17=Jessie J f. Big Sean and Dizzee Rascal - Wild
EXTD=
EXTT0=
EXTT1=
EXTT2=
EXTT3=
EXTT4=
EXTT5=
EXTT6=
EXTT7=
EXTT8=
EXTT9=
EXTT10=
EXTT11=
EXTT12=
EXTT13=
EXTT14=
EXTT15=
EXTT16=
EXTT17=
PLAYORDER=
